<svg id="レイヤー_1" data-name="レイヤー 1" xmlns="http://www.w3.org/2000/svg" viewBox="0 0 113.39 113.39"><defs><style>.cls-1{fill:#231815;}.cls-2{fill:#fff;stroke:#231815;stroke-miterlimit:10;}</style></defs><title>アートボード 1</title><rect class="cls-1" x="21.99" y="73.59" width="67.63" height="4.32" rx="2.16" ry="2.16" transform="translate(-19.94 131.56) rotate(-90)"/><rect class="cls-2" x="33.64" y="10.88" width="26.62" height="4.32" rx="2.16" ry="2.16" transform="translate(-0.23 25.22) rotate(-30)"/><path class="cls-2" d="M34.23,22.51a1.9,1.9,0,1,1,.56-1.34A1.9,1.9,0,0,1,34.23,22.51Z"/><path class="cls-2" d="M80.08,68.36A1.9,1.9,0,1,1,80.64,67,1.9,1.9,0,0,1,80.08,68.36Z"/><rect class="cls-2" x="26.31" y="41.93" width="58.99" height="4.32" rx="2.16" ry="2.16" transform="translate(47.52 -26.55) rotate(45)"/><rect class="cls-2" x="73.55" y="50.79" width="26.62" height="4.32" rx="2.16" ry="2.16" transform="matrix(0.5, -0.87, 0.87, 0.5, -2.42, 101.7)"/></svg>