<svg id="レイヤー_1" data-name="レイヤー 1" xmlns="http://www.w3.org/2000/svg" viewBox="0 0 113.39 113.39"><defs><style>.cls-1{fill:#231815;}.cls-2{fill:#fff;stroke:#231815;stroke-miterlimit:10;}</style></defs><title>アートボード 1</title><rect class="cls-1" x="21.99" y="73.59" width="67.63" height="4.32" rx="2.16" ry="2.16" transform="translate(-19.94 131.56) rotate(-90)"/><rect class="cls-2" x="51.36" y="72.98" width="26.62" height="4.32" rx="2.16" ry="2.16" transform="translate(158.24 107.89) rotate(150)"/><path class="cls-2" d="M77.39,65.67A1.9,1.9,0,1,1,76.83,67,1.9,1.9,0,0,1,77.39,65.67Z"/><path class="cls-2" d="M31.54,19.82A1.9,1.9,0,1,1,31,21.16,1.9,1.9,0,0,1,31.54,19.82Z"/><rect class="cls-2" x="26.31" y="41.93" width="58.99" height="4.32" rx="2.16" ry="2.16" transform="translate(64.09 114.73) rotate(-135)"/><rect class="cls-2" x="11.45" y="33.08" width="26.62" height="4.32" rx="2.16" ry="2.16" transform="translate(67.65 31.41) rotate(120)"/></svg>