<svg id="レイヤー_1" data-name="レイヤー 1" xmlns="http://www.w3.org/2000/svg" viewBox="0 0 113.39 113.39"><defs><style>.cls-1{fill:#231815;}.cls-2{fill:#fff;stroke:#231815;stroke-miterlimit:10;}</style></defs><title>アートボード 1</title><rect class="cls-1" x="21.99" y="73.59" width="67.63" height="4.32" rx="2.16" ry="2.16" transform="translate(-19.94 131.56) rotate(-90)"/><rect class="cls-2" x="11.45" y="50.79" width="26.62" height="4.32" rx="2.16" ry="2.16" transform="translate(-8.72 100.86) rotate(-120)"/><path class="cls-2" d="M34.23,65.67a1.9,1.9,0,1,1-1.34-.56A1.9,1.9,0,0,1,34.23,65.67Z"/><path class="cls-2" d="M80.08,19.82a1.9,1.9,0,1,1-1.34-.56A1.9,1.9,0,0,1,80.08,19.82Z"/><rect class="cls-2" x="26.31" y="41.93" width="58.99" height="4.32" rx="2.16" ry="2.16" transform="translate(-14.83 52.38) rotate(-45)"/><rect class="cls-2" x="51.36" y="10.88" width="26.62" height="4.32" rx="2.16" ry="2.16" transform="translate(114.15 56.67) rotate(-150)"/></svg>