<svg id="レイヤー_1" data-name="レイヤー 1" xmlns="http://www.w3.org/2000/svg" viewBox="0 0 113.39 113.39"><defs><style>.cls-1{fill:#231815;}.cls-2{fill:#fff;stroke:#231815;stroke-miterlimit:10;}</style></defs><title>アートボード 1</title><rect class="cls-1" x="21.99" y="73.59" width="67.63" height="4.32" rx="2.16" ry="2.16" transform="translate(-19.94 131.56) rotate(-90)"/><rect class="cls-2" x="51.36" y="10.88" width="26.62" height="4.32" rx="2.16" ry="2.16" transform="translate(114.15 56.67) rotate(-150)"/><path class="cls-2" d="M77.39,22.51a1.9,1.9,0,1,1,1.34.56A1.9,1.9,0,0,1,77.39,22.51Z"/><path class="cls-2" d="M31.54,68.36a1.9,1.9,0,1,1,1.34.56A1.9,1.9,0,0,1,31.54,68.36Z"/><rect class="cls-2" x="26.31" y="41.93" width="58.99" height="4.32" rx="2.16" ry="2.16" transform="translate(126.45 35.81) rotate(135)"/><rect class="cls-2" x="33.64" y="72.98" width="26.62" height="4.32" rx="2.16" ry="2.16" transform="translate(43.86 -13.41) rotate(30)"/></svg>